<?xml version="1.0" encoding="utf-8"?>
<!-- Generator: Adobe Illustrator 16.0.0, SVG Export Plug-In . SVG Version: 6.00 Build 0)  -->
<!DOCTYPE svg PUBLIC "-//W3C//DTD SVG 1.1//EN" "http://www.w3.org/Graphics/SVG/1.1/DTD/svg11.dtd">
<svg version="1.1" id="Layer_1" xmlns="http://www.w3.org/2000/svg" xmlns:xlink="http://www.w3.org/1999/xlink" x="0px" y="0px"
	 width="97.328px" height="183.702px" viewBox="0 0 97.328 183.702" enable-background="new 0 0 97.328 183.702"
	 xml:space="preserve">
<g>
	<path fill="#FFFFFF" d="M75.044,152.64l-1.624,0.646l-3.231,1.49l-11.783-7.171l14.235-7.434l2.917,0.688
		c2.591,0.584,5.17-1.05,5.752-3.638c0.584-2.585-1.047-5.165-3.636-5.751l-1.616-0.363l0.309-2.051
		c0.438-2.616-1.333-5.103-3.948-5.541c-2.616-0.438-5.101,1.332-5.542,3.948l-0.289,1.723l-0.392,3.539l-17.353,9.06L30.188,130.43
		l-0.921-2.853c-0.838-2.518-3.568-3.88-6.085-3.048c-2.515,0.837-3.882,3.566-3.047,6.087l0.537,1.608l-1.929,0.755
		c-2.466,0.979-3.679,3.781-2.703,6.244c0.971,2.465,3.771,3.681,6.242,2.708l1.623-0.646l3.233-1.49l11.78,7.172l-14.231,7.431
		l-2.917-0.685c-1.253-0.282-2.543-0.061-3.63,0.627c-1.086,0.687-1.84,1.755-2.123,3.009c-0.583,2.583,1.047,5.164,3.636,5.752
		l1.705,0.384l-0.397,2.027c-0.438,2.616,1.333,5.104,3.949,5.544c0.268,0.045,0.535,0.067,0.798,0.067
		c2.305,0,4.348-1.668,4.743-4.015l0.289-1.724l0.391-3.539l17.354-9.06l18.654,11.352l0.922,2.854
		c0.405,1.22,1.262,2.208,2.412,2.784c0.679,0.34,1.413,0.512,2.15,0.512c0.511,0,1.023-0.082,1.522-0.248
		c2.515-0.835,3.881-3.564,3.047-6.086l-0.553-1.656l-0.003-0.008l1.947-0.7c1.195-0.473,2.134-1.383,2.646-2.562
		c0.512-1.18,0.533-2.488,0.06-3.683C80.314,152.881,77.512,151.669,75.044,152.64z M27.236,138.099l-3.921,1.81l-1.583,0.628
		c-1.699,0.672-3.627-0.166-4.296-1.864c-0.671-1.695,0.164-3.624,1.858-4.297l1.928-0.755l0.925,2.334l1.395-0.553l-1.444-3.642
		l-0.539-1.617c-0.575-1.734,0.366-3.614,2.097-4.189c1.733-0.577,3.612,0.366,4.187,2.092l1.09,3.377l18.358,11.173l-1.94,1.014
		l0,0.001l-4.879,2.548L27.236,138.099z M29.727,160.888l-0.473,4.291l-0.283,1.682c-0.302,1.801-2.01,3.016-3.813,2.718
		c-1.8-0.304-3.02-2.017-2.722-3.797l0.402-2.05l2.426,0.405l0.247-1.48l-3.863-0.643l-1.664-0.375
		c-1.782-0.405-2.905-2.181-2.503-3.959c0.194-0.863,0.713-1.599,1.46-2.071c0.749-0.473,1.635-0.626,2.493-0.433l3.454,0.811
		l21.214-11.076l0-0.001L67.6,133.684l0.474-4.292l0.283-1.68c0.304-1.801,2.013-3.015,3.815-2.719
		c1.8,0.303,3.019,2.014,2.715,3.827l-0.307,2.034l-2.515-0.42l-0.247,1.48l3.862,0.643l1.664,0.375
		c1.782,0.403,2.905,2.179,2.503,3.958c-0.401,1.782-2.172,2.907-3.953,2.506l-3.453-0.813L29.727,160.888z M79.852,158.433
		c-0.352,0.812-0.999,1.438-1.799,1.755l-1.97,0.708l-0.902-2.278l-1.395,0.553l1.444,3.643l0.538,1.615
		c0.574,1.735-0.366,3.615-2.097,4.189c-0.838,0.28-1.736,0.215-2.527-0.182s-1.381-1.076-1.658-1.909l-1.091-3.38l-18.358-11.171
		l6.817-3.56l13.238,8.057l3.919-1.81l1.584-0.628c1.702-0.67,3.627,0.166,4.298,1.863
		C80.219,156.721,80.204,157.622,79.852,158.433z"/>
	<path fill="#FFFFFF" d="M77.368,91.943V76.55h6.974v-1.5h-6.974V45.122c0-8.911-6.132-13.766-6.393-13.968l-0.459-0.356
		l-0.459,0.356c-0.177,0.137-3.06,2.426-4.893,6.669v-6.856c0-22.66-16.113-30.729-16.275-30.808L48.561,0l-0.327,0.159
		c-0.163,0.079-16.274,8.147-16.274,30.808v6.793c-1.834-4.201-4.688-6.469-4.864-6.605l-0.459-0.356l-0.459,0.356
		c-0.261,0.202-6.393,5.057-6.393,13.968V75.05h-6.795v1.5h6.795V91.92L0,103.501v11.23h19.784v3.914h13.676v-3.914h3.336
		l-4.739,8.371l0.653,1.119h15.205v5.605h1.5v-5.605h15.201l0.668-1.091l-4.289-8.399h2.684v3.987h13.674v-3.987h19.976v-11.335
		L77.368,91.943z M75.868,91.083l-3.173-1.821l0.326-0.498v-11.68c0-0.179-0.01-0.356-0.014-0.534h2.861V91.083z M25.807,88.309
		V77.084c0-0.179,0.009-0.356,0.014-0.534H42.31v-1.5H25.902c1.012-11.408,10.436-20.428,22.012-20.804v31.796
		c-2.314,0.176-4.467,1.153-6.125,2.812l1.061,1.061c1.375-1.375,3.151-2.2,5.064-2.372v7.146v4.346h-6.31v-4.346h-1.5v4.346h-6.615
		V87.432h-1.5v9.934L25.807,88.309z M49.414,28.606h2.74l7.36,26.68c-3.059-1.529-6.481-2.43-10.1-2.541V28.606z M47.914,52.746
		c-3.698,0.113-7.189,1.052-10.298,2.642l7.445-26.781h2.854V52.746z M33.489,100.545h6.615v4.355h1.5v-4.355h6.31v4.355v8.331
		h-6.901l-7.524-3.346V100.545z M49.414,104.901v-4.355h6.311v4.355h1.5v-4.355h6.615v9.341l-7.524,3.346h-6.901V104.901z
		 M63.839,87.432v11.602h-6.615v-4.346h-1.5v4.346h-6.311v-4.346v-7.146c1.914,0.172,3.691,0.997,5.066,2.372l1.061-1.061
		c-1.658-1.659-3.812-2.636-6.127-2.812V54.246c11.576,0.376,21,9.396,22.011,20.804H55.021v1.5h16.486
		c0.004,0.178,0.014,0.355,0.014,0.534v11.232l-6.181,9.451V87.432H63.839z M70.515,32.744c1.375,1.287,5.353,5.599,5.353,12.377
		V75.05h-2.938c-0.52-6.252-3.407-11.841-7.766-15.863v-3.018V45.122C65.163,38.343,69.14,34.031,70.515,32.744z M33.459,30.966
		c0-11.335,4.188-18.735,7.703-22.947c3.172-3.802,6.384-5.77,7.398-6.336c1.015,0.566,4.227,2.534,7.399,6.336
		c3.514,4.212,7.703,11.612,7.703,22.947v14.155v11.047v1.746c-0.739-0.58-1.509-1.122-2.313-1.614l-8.053-29.194h-3.883v-5.961
		h-1.5v5.961h-3.993l-8.153,29.329c-0.802,0.503-1.573,1.051-2.309,1.641v-1.907h0.029V45.122c0-0.237-0.021-0.459-0.029-0.69
		V30.966z M21.284,45.122c0-6.779,3.978-11.09,5.353-12.377c1.318,1.235,5.023,5.259,5.323,11.568v15.069
		c-4.244,4.007-7.05,9.515-7.562,15.668h-3.114V45.122z M21.284,76.55h3.037c-0.004,0.178-0.014,0.355-0.014,0.534v11.688
		l0.245,0.358l-3.268,1.913V76.55z M1.5,104.361l23.899-13.989l6.59,9.655v0.507v10.327l5.333,2.371H1.5V104.361z M31.959,117.146
		H21.284v-2.414h10.676V117.146z M33.996,122.722l4.523-7.99h2.175h7.219v7.99H33.996z M63.39,122.722H49.414v-7.99h7.22h2.676
		L63.39,122.722z M75.853,117.219H65.178v-2.487h10.674V117.219z M95.828,113.232H60.007l5.333-2.371v-10.327v-0.028l6.533-9.986
		l23.956,13.747V113.232z"/>
	<rect x="40.104" y="127.202" fill="#FFFFFF" width="1.5" height="5.448"/>
	<rect x="40.104" y="160.734" fill="#FFFFFF" width="1.5" height="13.66"/>
	<rect x="55.725" y="127.202" fill="#FFFFFF" width="1.5" height="5.448"/>
	<rect x="55.725" y="160.734" fill="#FFFFFF" width="1.5" height="13.66"/>
	<rect x="48.068" y="165.089" fill="#FFFFFF" width="1.5" height="18.612"/>
</g>
</svg>
