<?xml version="1.0" encoding="utf-8"?>
<!-- Generator: Adobe Illustrator 16.0.0, SVG Export Plug-In . SVG Version: 6.00 Build 0)  -->
<!DOCTYPE svg PUBLIC "-//W3C//DTD SVG 1.1//EN" "http://www.w3.org/Graphics/SVG/1.1/DTD/svg11.dtd">
<svg version="1.1" id="Layer_1" xmlns="http://www.w3.org/2000/svg" xmlns:xlink="http://www.w3.org/1999/xlink" x="0px" y="0px"
	 width="36px" height="36px" viewBox="-129.374 2 36 36" enable-background="new -129.374 2 36 36" xml:space="preserve">
<path fill="#FFFFFF" d="M-111.374,2c-9.944,0-18,8.056-18,18s8.056,18,18,18s18-8.056,18-18S-101.43,2-111.374,2z M-109,17.348
	c0.671-1.934,1.339-3.869,2.015-5.801c0.216-0.616,0.462-1.222,0.794-1.786c0.132-0.222,0.291-0.431,0.454-0.632
	c0.136-0.164,0.311-0.291,0.527-0.332c0.345-0.063,0.662,0.094,0.818,0.409c0.155,0.312,0.166,0.642,0.1,0.977
	c-0.154,0.78-0.396,1.535-0.637,2.291c-0.561,1.771-1.188,3.52-1.829,5.264c-0.006,0.021-0.017,0.039-0.027,0.066
	c-0.748-0.132-1.486-0.259-2.228-0.391C-109.009,17.389-109.007,17.368-109,17.348z M-115.923,8.935
	c0.07-0.302,0.224-0.545,0.53-0.655c0.244-0.088,0.477-0.053,0.69,0.091c0.183,0.121,0.332,0.279,0.434,0.468
	c0.189,0.356,0.389,0.711,0.53,1.086c0.404,1.061,0.791,2.129,1.167,3.199c0.467,1.325,0.922,2.654,1.381,3.981
	c0.008,0.025,0.018,0.052,0.031,0.092c-0.235-0.019-0.456-0.046-0.68-0.058c-0.319-0.019-0.641-0.039-0.963-0.037
	c-0.269,0.002-0.515,0.077-0.67,0.345c-0.13-0.35-0.256-0.685-0.381-1.021c-0.536-1.445-1.057-2.897-1.508-4.372
	c-0.213-0.696-0.414-1.397-0.535-2.118C-115.951,9.604-116.001,9.27-115.923,8.935z M-116.98,20.007
	c0.175-0.297,0.411-0.542,0.694-0.735c0.248-0.167,0.511-0.189,0.79-0.092c0.26,0.09,0.476,0.247,0.677,0.428
	c0.33,0.302,0.597,0.658,0.837,1.033c0.748,1.167,1.336,2.405,1.759,3.725c0.049,0.149,0.086,0.3,0.113,0.454
	c0.063,0.385-0.248,0.851-0.626,0.949c-0.146,0.04-0.297,0.034-0.43-0.032c-0.194-0.095-0.39-0.197-0.565-0.321
	c-0.474-0.337-0.873-0.758-1.241-1.209c-0.641-0.779-1.248-1.581-1.714-2.48c-0.167-0.324-0.323-0.654-0.402-1.012
	c-0.017-0.078-0.024-0.158-0.035-0.236C-117.117,20.308-117.065,20.149-116.98,20.007z M-104.266,25.818
	c-0.637,2.04-1.836,3.665-3.637,4.827c-0.896,0.58-1.886,0.915-2.944,1.048c-1.384,0.173-2.739,0.059-4.048-0.453
	c-1.386-0.537-2.483-1.444-3.331-2.659c-0.493-0.706-0.896-1.455-1.107-2.296c-0.153-0.6-0.176-1.199,0.043-1.789
	c0.167-0.442,0.436-0.814,0.822-1.093c0.167-0.118,0.353-0.19,0.559-0.222c0.149-0.02,0.297,0,0.425,0.08
	c0.159,0.103,0.325,0.201,0.458,0.335c0.924,0.896,1.717,1.899,2.33,3.032c0.066,0.125,0.114,0.259,0.16,0.391
	c0.076,0.213,0.021,0.396-0.137,0.557c-0.283,0.281-0.622,0.35-1,0.261c-0.274-0.062-0.513-0.197-0.736-0.366
	c-0.408-0.305-0.737-0.688-1.043-1.09c-0.257-0.338-0.514-0.671-0.779-1.02c-0.131,0.129-0.175,0.275-0.192,0.432
	c-0.044,0.404,0.051,0.779,0.228,1.138c0.251,0.507,0.625,0.922,1.042,1.296c0.415,0.372,0.868,0.688,1.409,0.861
	c0.493,0.154,0.989,0.188,1.472-0.03c0.509-0.228,0.867-0.602,0.989-1.165c0.061-0.29,0.008-0.577-0.054-0.863
	c-0.007-0.025-0.013-0.052-0.021-0.092c0.41,0.102,0.814,0.209,1.187-0.135c0,0.059,0,0.097,0,0.134
	c-0.001,0.613,0.051,1.224,0.239,1.812c0.1,0.317,0.239,0.618,0.445,0.881c0.228,0.291,0.516,0.484,0.887,0.544
	c0.036,0.004,0.073,0.005,0.112,0.008c0.06-0.152,0.057-0.31,0.014-0.461c-0.105-0.366-0.22-0.732-0.329-1.099
	c-0.158-0.537-0.25-1.081-0.156-1.643c0.078-0.458,0.24-0.883,0.46-1.29c0.515-0.943,1.217-1.716,2.129-2.29
	c0.4-0.253,0.842-0.422,1.281-0.594c0.339-0.133,0.678-0.271,0.979-0.48c0.205-0.142,0.175-0.092,0.123-0.325
	c-0.016-0.078-0.046-0.153-0.079-0.225c-0.101-0.217-0.272-0.323-0.518-0.326c-0.74-0.01-1.482-0.011-2.223-0.042
	c-0.831-0.035-1.655-0.128-2.456-0.364c-0.365-0.105-0.713-0.248-1.02-0.472c-0.577-0.423-0.803-0.995-0.701-1.696
	c0.05-0.337,0.259-0.535,0.584-0.604c0.15-0.031,0.303-0.055,0.454-0.056c1.955-0.013,3.875,0.23,5.746,0.809
	c0.37,0.115,0.728,0.271,1.084,0.425c0.657,0.287,1.014,0.807,1.145,1.504c0.124,0.653,0.15,1.313,0.139,1.978
	C-103.847,23.913-103.973,24.878-104.266,25.818z M-111.904,22.074c0.896,0.333,1.804,0.467,2.754,0.516
	c-0.729,0.486-1.336,1.064-1.881,1.743C-111.241,23.544-111.541,22.81-111.904,22.074z"/>
</svg>
