<?xml version="1.0" encoding="utf-8"?>
<!-- Generator: Adobe Illustrator 16.0.0, SVG Export Plug-In . SVG Version: 6.00 Build 0)  -->
<!DOCTYPE svg PUBLIC "-//W3C//DTD SVG 1.1//EN" "http://www.w3.org/Graphics/SVG/1.1/DTD/svg11.dtd">
<svg version="1.1" id="Layer_1" xmlns="http://www.w3.org/2000/svg" xmlns:xlink="http://www.w3.org/1999/xlink" x="0px" y="0px"
	 width="100px" height="100px" viewBox="0 0 100 100" enable-background="new 0 0 100 100" xml:space="preserve">
<g>
	<path opacity="0.5" fill="#BCBCBC" d="M100,50.006c-5.805-2.684-11.482-9.77-17.471-13.355c2.938-8.656,3.158-21.668,2.828-22.004
		c-6,2.208-15.023,1.205-21.801,2.911C59.514,9.365,50.475,0,50,0c-2.678,5.811-9.766,11.482-13.352,17.472
		c-8.654-2.939-21.669-3.164-22.001-2.826c2.208,5.996,1.207,15.018,2.91,21.797C9.357,40.482,0,49.523,0,50.006
		c5.805,2.671,11.479,9.755,17.468,13.338c-2.941,8.659-3.167,21.675-2.822,22.011c5.995-2.214,15.018-1.214,21.797-2.917
		C40.484,90.636,49.516,100,50,100c2.674-5.805,9.764-11.479,13.35-17.474c8.656,2.939,21.666,3.166,22.004,2.828
		c-2.211-6-1.207-15.026-2.914-21.797C90.639,59.516,100,50.48,100,50.006z M53.123,72.528c-12.494,0.429-22.973-9.354-23.41-21.856
		c-0.431-12.486,9.351-22.967,21.847-23.401c0.004,0,0.004,0,0.008,0c7.084-0.246,13.516,2.799,17.844,7.756l-7.693,8.239
		c-2.162-3.049-5.758-5.002-9.768-4.865h-0.008c-3.072,0.105-5.914,1.404-8.016,3.656c-2.094,2.236-3.186,5.164-3.08,8.232
		c0.213,6.344,5.555,11.328,11.889,11.106c3.951-0.138,7.379-2.268,9.342-5.377l8.225,7.672
		C66.326,68.859,60.15,72.282,53.123,72.528z"/>
	<path opacity="0.75" fill="#BCBCBC" d="M85.158,49.309c5.9-6.982,10.871-19.014,10.678-19.443
		c-6.389-0.136-14.422-4.372-21.348-5.262c-0.764-9.107-5.756-21.122-6.205-21.298c-4.613,4.424-13.287,7.109-18.816,11.376
		C42.486,8.783,30.458,3.812,30.021,4.006c-0.135,6.392-4.365,14.42-5.256,21.349c-9.108,0.766-21.123,5.754-21.3,6.2
		c4.428,4.619,7.112,13.291,11.381,18.82C8.945,57.352,3.98,69.383,4.166,69.823c6.396,0.127,14.425,4.361,21.358,5.255
		c0.761,9.104,5.748,21.117,6.197,21.297c4.611-4.425,13.281-7.117,18.81-11.38c6.984,5.899,19.014,10.867,19.451,10.677
		c0.133-6.397,4.361-14.427,5.254-21.354c9.105-0.767,21.125-5.755,21.301-6.199C92.109,63.501,89.42,54.833,85.158,49.309z
		 M53.123,72.528c-12.494,0.429-22.973-9.354-23.41-21.856c-0.431-12.486,9.351-22.967,21.847-23.401c0.004,0,0.004,0,0.008,0
		c7.084-0.246,13.516,2.799,17.844,7.756l-7.693,8.239c-2.162-3.049-5.758-5.002-9.768-4.865h-0.008
		c-3.072,0.105-5.914,1.404-8.016,3.656c-2.094,2.236-3.186,5.164-3.08,8.232c0.213,6.344,5.555,11.328,11.889,11.106
		c3.951-0.138,7.379-2.268,9.342-5.377l8.225,7.672C66.326,68.859,60.15,72.282,53.123,72.528z"/>
	<path fill="#FFFFFF" d="M90.424,58.477c-1.637-3.207-3.275-6.458-5.266-9.037c1.727-2.037,3.363-4.508,4.82-6.994
		c-2.453-2.166-4.92-4.305-7.453-5.82c0.953-2.809,1.621-6.076,2.078-9.223c-3.428-1.113-6.891-2.246-10.117-2.664
		c-0.227-2.661-0.814-5.572-1.539-8.361c-3.266,0.203-6.527,0.438-9.391,1.153c-1.312-2.659-3.148-5.435-5.051-7.98
		c-3.209,1.637-6.465,3.281-9.039,5.265c-2.041-1.723-4.51-3.36-7-4.82c-2.166,2.451-4.303,4.922-5.822,7.455
		c-2.809-0.957-6.071-1.619-9.217-2.08c-1.106,3.435-2.25,6.896-2.666,10.124c-2.661,0.22-5.57,0.814-8.361,1.536
		c0.197,3.266,0.434,6.525,1.151,9.387c-2.662,1.308-5.431,3.147-7.978,5.045c1.636,3.211,3.279,6.469,5.265,9.04
		c-1.723,2.043-3.361,4.513-4.821,7.002c2.445,2.164,4.918,4.305,7.444,5.814c-0.95,2.809-1.619,6.075-2.072,9.217
		c3.435,1.117,6.896,2.258,10.129,2.676c0.222,2.664,0.808,5.566,1.533,8.355c3.264-0.2,6.525-0.432,9.386-1.156
		c1.308,2.662,3.149,5.438,5.049,7.986c3.211-1.64,6.465-3.281,9.043-5.268c2.039,1.722,4.512,3.359,6.992,4.822
		c2.172-2.449,4.311-4.918,5.82-7.453c2.811,0.954,6.078,1.619,9.225,2.079c1.113-3.433,2.254-6.896,2.672-10.126
		c2.656-0.221,5.564-0.809,8.354-1.535c-0.201-3.269-0.434-6.529-1.152-9.389C85.1,62.22,87.879,60.379,90.424,58.477z
		 M53.123,72.528c-12.494,0.429-22.973-9.354-23.41-21.856c-0.431-12.486,9.351-22.967,21.847-23.401c0.004,0,0.004,0,0.008,0
		c7.084-0.246,13.516,2.799,17.844,7.756l-7.693,8.239c-2.162-3.049-5.758-5.002-9.768-4.865h-0.008
		c-3.072,0.105-5.914,1.404-8.016,3.656c-2.094,2.236-3.186,5.164-3.08,8.232c0.213,6.344,5.555,11.328,11.889,11.106
		c3.951-0.138,7.379-2.268,9.342-5.377l8.225,7.672C66.326,68.859,60.15,72.282,53.123,72.528z"/>
</g>
</svg>
