<?xml version="1.0" encoding="utf-8"?>
<!-- Generator: Adobe Illustrator 16.0.0, SVG Export Plug-In . SVG Version: 6.00 Build 0)  -->
<!DOCTYPE svg PUBLIC "-//W3C//DTD SVG 1.1//EN" "http://www.w3.org/Graphics/SVG/1.1/DTD/svg11.dtd">
<svg version="1.1" id="Layer_1" xmlns="http://www.w3.org/2000/svg" xmlns:xlink="http://www.w3.org/1999/xlink" x="0px" y="0px"
	 width="100px" height="100px" viewBox="-646.567 292.265 100 100" enable-background="new -646.567 292.265 100 100"
	 xml:space="preserve">
<g id="Layer_1_2_">
	<g>
		<path fill="#FFFFFF" d="M-596.567,292.265c-27.614,0-50,22.386-50,50c0,27.614,22.386,50,50,50c27.614,0,50-22.386,50-50
			C-546.567,314.651-568.953,292.265-596.567,292.265z M-574.315,369.615c-2.028-3.074-5.05-6.127-4.74-8.573
			c0.348-2.743,3.277-4.666,4.911-8.982c1.633-4.314-6.444-21.944-21.484-35.313c-0.969,0.543,1.162,4.506,2.471,6.508
			c4.138,6.329,9.562,15.935,10.854,20.79c0.544,2.042-0.63,2.195-1.347,2.596c-1.045,0.586-2.413,0.83-4.291-1.148
			c-4.447-4.689-10.594-15.763-13.725-20.503c-0.881-1.337-3.024-3.164-3.024-3.164s0.317,2.755,1.029,4.382
			c2.226,5.079,7.868,15.558,9.938,21.749c1.022,3.052,0.424,4.376-0.404,4.84c-0.96,0.538-1.871,1.447-3.696-0.686
			c-3.406-3.979-8.706-13.23-11.39-19.471c-1.019-2.371-3.286-6.439-4.313-5.863c4.667,19.181,14.368,35.901,18.901,36.761
			c4.534,0.86,7.702-0.634,10.222,0.503c2.331,1.05,3.347,5.49,5.009,8.882l-0.003,0.001l-17.167,9.619
			c-3.765,2.109-8.412,0.802-10.522-2.965l-26.794-47.822c-2.11-3.766-0.8-8.412,2.965-10.521l17.168-9.619
			c19.269-10.796,39.992-5.03,49.658,12.223l0.099,0.176C-555.234,339.642-559.172,358.229-574.315,369.615z"/>
	</g>
</g>
</svg>
