<?xml version="1.0" encoding="utf-8"?>
<!-- Generator: Adobe Illustrator 16.0.0, SVG Export Plug-In . SVG Version: 6.00 Build 0)  -->
<!DOCTYPE svg PUBLIC "-//W3C//DTD SVG 1.1//EN" "http://www.w3.org/Graphics/SVG/1.1/DTD/svg11.dtd">
<svg version="1.1" id="Layer_2" xmlns="http://www.w3.org/2000/svg" xmlns:xlink="http://www.w3.org/1999/xlink" x="0px" y="0px"
	 width="169.1px" height="68px" viewBox="0 0 169.1 68" enable-background="new 0 0 169.1 68" xml:space="preserve">
<g>
	<path fill="#FFFFFF" d="M35.921,14.048c-2.966,0-2.855,7.24-2.855,20.815c0,13.476,0,20.789,2.81,20.789
		c2.953,0,2.898-7.28,2.898-20.789C38.773,21.321,38.693,14.048,35.921,14.048z"/>
	<path fill="#FFFFFF" d="M152.687,14.048c-2.967,0-2.855,7.24-2.855,20.815c0,13.476,0,20.789,2.808,20.789
		c2.954,0,2.899-7.28,2.899-20.789C155.538,21.321,155.457,14.048,152.687,14.048z"/>
	<path fill="#FFFFFF" d="M57.561,14.01v18.33c3.505,0,5.034-3.585,5.034-9.145S62.113,14.01,57.561,14.01z"/>
	<path fill="#FFFFFF" d="M0,0v68h169.1V0H0z M23.046,14.707c0,0-0.455-0.653-1.032-0.653c-0.578,0-7.719,0-7.719,0v11.688
		c0,0,4.729,0,5.055,0c0.326,0,1.196-0.544,1.196-0.544v4.784c0,0-0.707-0.49-1.088-0.49c-0.38,0-5.163,0-5.163,0s0,27.722,0,28.319
		s0.543,1.903,0.543,1.903h-7.12c0,0,0.657-0.945,0.657-1.795c0-0.849,0-45.026,0-45.875c0-0.851-0.875-2.175-0.875-2.175h15.546
		V14.707z M35.879,60.624c-5.83,0-8.684-8.969-8.684-25.765c0-16.919,2.854-25.726,8.705-25.726c5.971,0,8.621,8.889,8.621,25.726
		C44.521,51.695,41.831,60.624,35.879,60.624z M62.792,59.687c0,0,0.438-0.87,0.248-3.84c-0.124-1.942-0.59-8.761-1.151-13.09
		c-0.432-3.336-0.791-4.459-1.078-5.106c-0.702-1.58-2.565-2.018-3.236-1.119c0,0,0,20.682,0,21.279s0.522,1.871,0.522,1.871
		l-6.753,0.006c0,0,0.593-0.919,0.593-1.769c0-0.849,0-45.026,0-45.875c0-0.851-0.815-2.175-0.815-2.175S57.69,9.91,60.217,9.91
		c3.669,0,7.465,4.769,7.465,12.678c0,7.339-2.899,11.333-5.346,12.148c3.427,1.509,4.153,5.135,4.562,9.538
		c0.407,4.402,0.749,10.752,1.298,12.774c0.534,1.971,1.274,2.638,1.274,2.638H62.792z M89.075,59.646v-1.917l-7.991-29.841
		c0,0,0,29.312,0,29.841c0,0.531,0.489,1.917,0.489,1.917l-5.87,0.04c0,0,0.612-1.386,0.612-1.957c0-0.57,0-45.413,0-45.943
		S75.662,9.91,75.662,9.91h6.523l-0.082,1.752l6.522,23.156c0,0,0-22.381,0-23.115c0-0.733-0.529-1.753-0.529-1.753h5.258
		c0,0,0,47.208,0,47.86s0.571,1.835,0.571,1.835H89.075z M109.907,59.686h-6.892c0,0,0.53-1.15,0.53-1.888
		c0-0.736-0.061-45.546-0.061-46.185c0-0.671-0.421-1.696-0.421-1.696h6.846c0,0-0.411,1.039-0.411,1.664s0,45.658,0,46.202
		C109.499,58.565,109.907,59.686,109.907,59.686z M131.962,59.646v-1.917l-7.991-29.841c0,0,0,29.312,0,29.841
		c0,0.531,0.489,1.917,0.489,1.917l-5.87,0.04c0,0,0.611-1.386,0.611-1.957c0-0.57,0-45.413,0-45.943s-0.652-1.875-0.652-1.875
		h6.522l-0.081,1.752l6.522,23.156c0,0,0-22.381,0-23.115c0-0.733-0.529-1.753-0.529-1.753h5.258c0,0,0,47.208,0,47.86
		s0.571,1.835,0.571,1.835H131.962z M152.643,60.624c-5.829,0-8.683-8.969-8.683-25.765c0-16.919,2.854-25.726,8.705-25.726
		c5.971,0,8.621,8.889,8.621,25.726C161.286,51.695,158.596,60.624,152.643,60.624z"/>
</g>
</svg>
