<?xml version="1.0" encoding="utf-8"?>
<!-- Generator: Adobe Illustrator 16.0.0, SVG Export Plug-In . SVG Version: 6.00 Build 0)  -->
<!DOCTYPE svg PUBLIC "-//W3C//DTD SVG 1.1//EN" "http://www.w3.org/Graphics/SVG/1.1/DTD/svg11.dtd">
<svg version="1.1" id="Layer_1" xmlns="http://www.w3.org/2000/svg" xmlns:xlink="http://www.w3.org/1999/xlink" x="0px" y="0px"
	 width="36px" height="36px" viewBox="2 2 36 36" enable-background="new 2 2 36 36" xml:space="preserve">
<g>
	<g id="XMLID_1_">
		<g>
			<path fill="#FFFFFF" d="M20,2c9.944,0,18,8.056,18,18s-8.056,18-18,18S2,29.944,2,20S10.056,2,20,2z M29.604,28.36V12.233
				c0-0.738-0.621-1.342-1.388-1.342H12.277c-0.764,0-1.375,0.604-1.375,1.342V28.36c0,0.748,0.611,1.352,1.375,1.352h15.938
				C28.982,29.712,29.604,29.108,29.604,28.36z"/>
			<path fill="#FFFFFF" d="M20.955,19.353c-0.011,0.008-0.011,0.018-0.021,0.026h0.021V19.353c0.377-0.586,1.043-1.404,2.545-1.404
				c1.862,0,3.25,1.215,3.25,3.826v4.866h-2.817v-4.546c0-1.142-0.413-1.925-1.431-1.925c-0.783,0-1.254,0.53-1.449,1.037
				c-0.082,0.181-0.098,0.439-0.098,0.692v4.743h-2.827c0,0,0.035-7.705,0-8.496h2.827V19.353z"/>
			<rect x="13.745" y="18.146" fill="#FFFFFF" width="2.826" height="8.496"/>
			<path fill="#FFFFFF" d="M15.175,14.05c0.964,0,1.558,0.631,1.576,1.468c0,0.81-0.612,1.467-1.594,1.467H15.14
				c-0.953,0-1.565-0.657-1.565-1.467C13.575,14.682,14.205,14.05,15.175,14.05z"/>
		</g>
	</g>
</g>
</svg>
