<?xml version="1.0" encoding="utf-8"?>
<!-- Generator: Adobe Illustrator 16.0.0, SVG Export Plug-In . SVG Version: 6.00 Build 0)  -->
<!DOCTYPE svg PUBLIC "-//W3C//DTD SVG 1.1//EN" "http://www.w3.org/Graphics/SVG/1.1/DTD/svg11.dtd">
<svg version="1.1" id="Layer_1" xmlns="http://www.w3.org/2000/svg" xmlns:xlink="http://www.w3.org/1999/xlink" x="0px" y="0px"
	 width="145.697px" height="41.62px" viewBox="0 0 145.697 41.62" enable-background="new 0 0 145.697 41.62" xml:space="preserve">
<path fill="#A18F5F" d="M124.887,41.62H20.811C9.336,41.62,0,32.285,0,20.81S9.336,0,20.811,0h104.076
	c11.475,0,20.811,9.335,20.811,20.81S136.361,41.62,124.887,41.62z M20.811,2.5C10.714,2.5,2.5,10.714,2.5,20.81
	c0,10.096,8.214,18.31,18.311,18.31h104.076c10.097,0,18.311-8.214,18.311-18.31c0-10.096-8.214-18.31-18.311-18.31H20.811z"/>
<g>
	<path fill="#A18F5F" d="M33.828,19.269v-1.238h-2.812v5.648h2.812v-1.238h2.318v2.273c0,0.3-0.113,0.547-0.338,0.743
		c-0.225,0.195-0.502,0.292-0.832,0.292h-5.107c-0.332,0-0.605-0.098-0.822-0.292c-0.219-0.195-0.326-0.442-0.326-0.743v-7.741
		c0-0.299,0.107-0.551,0.326-0.753c0.217-0.203,0.49-0.304,0.822-0.304h5.107c0.33,0,0.607,0.102,0.832,0.304
		s0.338,0.454,0.338,0.753v2.296H33.828z"/>
	<path fill="#A18F5F" d="M44.832,25.749h-5.625c-0.314,0-0.586-0.098-0.811-0.292c-0.225-0.195-0.338-0.442-0.338-0.743v-7.763
		c0-0.285,0.113-0.529,0.338-0.731s0.496-0.304,0.811-0.304h5.625c0.316,0,0.586,0.102,0.811,0.304s0.338,0.446,0.338,0.731v7.763
		c0,0.3-0.113,0.547-0.338,0.743C45.418,25.651,45.148,25.749,44.832,25.749z M40.377,23.657h3.287v-5.648h-3.287V23.657z"/>
	<path fill="#A18F5F" d="M56.805,25.749h-2.025l-4.41-6.661v6.661h-2.295v-9.834h3.307l3.105,4.726v-4.726h2.318V25.749z"/>
	<path fill="#A18F5F" d="M65.107,17.985h-2.271v7.764h-2.318v-7.764h-2.273v-2.07h6.863V17.985z"/>
	<path fill="#A18F5F" d="M73.502,25.749l-0.766-2.318H69.09l-0.787,2.318h-2.385l3.217-9.812h3.535l3.217,9.812H73.502z
		 M70.914,18.008l-1.127,3.308h2.229L70.914,18.008z"/>
	<path fill="#A18F5F" d="M81.625,19.269v-1.238h-2.814v5.648h2.814v-1.238h2.318v2.273c0,0.3-0.113,0.547-0.338,0.743
		c-0.227,0.195-0.504,0.292-0.834,0.292h-5.107c-0.33,0-0.604-0.098-0.82-0.292c-0.219-0.195-0.328-0.442-0.328-0.743v-7.741
		c0-0.299,0.109-0.551,0.328-0.753c0.217-0.203,0.49-0.304,0.82-0.304h5.107c0.33,0,0.607,0.102,0.834,0.304
		c0.225,0.203,0.338,0.454,0.338,0.753v2.296H81.625z"/>
	<path fill="#A18F5F" d="M92.156,17.985h-2.271v7.764h-2.318v-7.764h-2.273v-2.07h6.863V17.985z"/>
	<path fill="#A18F5F" d="M106.691,25.749h-5.646c-0.332,0-0.609-0.098-0.832-0.292c-0.227-0.195-0.338-0.442-0.338-0.743v-8.821
		h2.34v7.764h3.307v-7.764h2.342v8.821c0,0.3-0.113,0.547-0.338,0.743C107.301,25.651,107.021,25.749,106.691,25.749z"/>
	<path fill="#A18F5F" d="M115.828,25.749h-5.783v-2.092h4.613v-1.846h-3.443c-0.314,0-0.588-0.102-0.82-0.304
		c-0.232-0.203-0.35-0.454-0.35-0.753v-3.849c0-0.285,0.117-0.529,0.35-0.731s0.506-0.303,0.82-0.303h5.762v2.092h-4.592v1.732
		h3.443c0.314,0,0.586,0.102,0.811,0.304c0.225,0.203,0.338,0.454,0.338,0.754v3.938c0,0.3-0.113,0.551-0.338,0.754
		S116.143,25.749,115.828,25.749z"/>
</g>
</svg>
