<?xml version="1.0" encoding="utf-8"?>
<!-- Generator: Adobe Illustrator 16.0.0, SVG Export Plug-In . SVG Version: 6.00 Build 0)  -->
<!DOCTYPE svg PUBLIC "-//W3C//DTD SVG 1.1//EN" "http://www.w3.org/Graphics/SVG/1.1/DTD/svg11.dtd">
<svg version="1.1" id="Layer_1" xmlns="http://www.w3.org/2000/svg" xmlns:xlink="http://www.w3.org/1999/xlink" x="0px" y="0px"
	 width="82.435px" height="100px" viewBox="-9.206 -25.25 82.435 100" enable-background="new -9.206 -25.25 82.435 100"
	 xml:space="preserve">
<path fill="#FFFFFF" d="M71.771,3.661l-8.97,2.406V0.614c0-0.831-0.656-1.335-1.461-1.124l-5.896,1.557
	c-0.803,0.21-1.46,1.064-1.46,1.895v5.492l-9.116,2.446V5.394c0-0.831-0.657-1.335-1.461-1.123L37.51,5.826
	c-0.804,0.211-1.458,1.065-1.458,1.895v5.524l-15.024,4.029c0.017-4.695-0.131-9.496-1.893-13.918
	c-2.043-5.726-5.384-11.895-2.797-18.043c1.108-4.005,6.238-7.537,10.031-4.679c3.493,3.612-0.784,7.83-1.81,11.481
	c-1.158,6.229,5.906,10.708,11.471,9.651c5.042-0.684,8.24-5.786,8.351-10.586c0.848-6.601-3.661-13.252-9.92-15.276
	c-7.081-2.353-15.292-1.075-21.209,3.513C7.698-16.417,4.327-9.986,2.515-3.406C0.224,5.119,0.613,14.016,0.614,22.753l-8.361,2.244
	c-0.804,0.215-1.459,1.068-1.459,1.899V40.29c0,0.827,0.657,1.332,1.459,1.121l8.361-2.219v30.295h-5.516
	c-0.829,0-1.509,0.679-1.509,1.51v2.244c0,0.829,0.68,1.509,1.509,1.509h31.637c0.831,0,1.509-0.68,1.509-1.51v-2.246
	c0-0.828-0.68-1.509-1.509-1.509h-5.736V33.784l15.054-3.997v9.017l-6.061,1.654c-0.799,0.216-1.52,1.073-1.598,1.899l-1.336,14.046
	c-0.079,0.822,0.512,1.32,1.313,1.105l7.681-2.096v6.986c0,0.83,0.655,1.337,1.459,1.124l5.897-1.557
	c0.801-0.212,1.46-1.064,1.46-1.894v-7.067l9.117-2.489v7.1c0,0.831,0.656,1.337,1.459,1.126l5.896-1.558
	c0.803-0.212,1.459-1.062,1.459-1.895v-7.178l6.21-1.695c0.804-0.218,1.501-1.076,1.555-1.903l0.893-13.894
	c0.053-0.828-0.557-1.327-1.359-1.11L62.8,31.5v-8.811l8.971-2.38c0.803-0.213,1.458-1.066,1.458-1.896V4.778
	C73.228,3.949,72.574,3.445,71.771,3.661z M53.983,33.909l-9.116,2.487v-8.948l9.116-2.418V33.909z"/>
</svg>
