<?xml version="1.0" encoding="utf-8"?>
<!-- Generator: Adobe Illustrator 16.0.0, SVG Export Plug-In . SVG Version: 6.00 Build 0)  -->
<!DOCTYPE svg PUBLIC "-//W3C//DTD SVG 1.1//EN" "http://www.w3.org/Graphics/SVG/1.1/DTD/svg11.dtd">
<svg version="1.1" id="Layer_1" xmlns="http://www.w3.org/2000/svg" xmlns:xlink="http://www.w3.org/1999/xlink" x="0px" y="0px"
	 width="102px" height="102px" viewBox="-27.125 -27.125 102 102" enable-background="new -27.125 -27.125 102 102"
	 xml:space="preserve">
<path fill="#FFFFFF" d="M74.832,21.934c-0.224-5.572-1.342-11.112-3.349-16.317c-2.596-6.788-6.683-12.998-11.865-18.091
	c-5.717-5.628-12.775-9.89-20.432-12.288c-4.327-1.371-8.841-2.132-13.374-2.318c-0.312,0.004-0.625,0.004-0.932-0.044h-2.001
	c-0.347,0.053-0.699,0.044-1.049,0.044c-3.227,0.15-6.448,0.566-9.593,1.309c-7.994,1.86-15.513,5.707-21.712,11.086
	c-4.652,4.019-8.568,8.892-11.496,14.299c-3.286,6.05-5.314,12.778-5.93,19.635c-0.121,1.205-0.161,2.414-0.224,3.62v2.001
	c0.108,3.086,0.414,6.176,1.043,9.208c1.688,8.338,5.524,16.225,11.029,22.711c4.808,5.693,10.882,10.319,17.661,13.425
	c6.086,2.811,12.738,4.374,19.431,4.616c0.278-0.004,0.558,0.001,0.834,0.044h2c0.311-0.048,0.627-0.047,0.943-0.044
	c3.817-0.161,7.626-0.72,11.317-1.72c8.35-2.229,16.084-6.657,22.277-12.678c5.622-5.467,9.979-12.239,12.569-19.646
	c1.702-4.808,2.645-9.879,2.853-14.972c-0.003-0.312-0.004-0.626,0.043-0.935v-2.001C74.828,22.567,74.829,22.249,74.832,21.934z
	 M-3.848,24.576c-0.691-1.5-0.62-3.325,0.204-4.758c0.61-1.106,1.646-1.963,2.837-2.381c1.314-0.47,2.818-0.389,4.068,0.233
	c1.783,0.847,3.016,2.795,2.919,4.779c0.053,1.29-0.503,2.55-1.348,3.508c-1.125,1.228-2.86,1.887-4.518,1.661
	c-0.386-0.035-0.758-0.146-1.132-0.25C-2.135,26.87-3.278,25.878-3.848,24.576z M51.882,11.725
	c-0.416,3.382-1.786,6.709-4.181,9.171c-2.178,2.317-5.081,3.84-8.11,4.731c-2.321,0.682-4.731,1.051-7.148,1.184
	c-0.916,0.109-1.835,0.037-2.75,0.136c-0.85-0.005-1.7,0.036-2.544-0.057c-1.229-0.015-2.457,0.006-3.683-0.009
	c0.025-0.261,0.052-0.524,0.083-0.782c0.214-1.452,0.41-2.908,0.613-4.363c0.174-1.274,0.366-2.547,0.527-3.823
	c1.025-0.063,2.043,0.118,3.065,0.029c0.17,0.003,0.34,0.005,0.51,0.003c0.685-0.014,1.374,0.059,2.059-0.026
	c0.983-0.007,1.963-0.078,2.941-0.178c0.304-0.035,0.611-0.052,0.912-0.103c2.168-0.302,4.418-0.813,6.186-2.178
	c1.303-0.985,2.16-2.479,2.498-4.064c0.344-1.639,0.367-3.363-0.062-4.987c-0.477-1.822-1.568-3.471-3.045-4.638
	c-1.61-1.319-3.616-2.102-5.672-2.373c-2.841-0.37-5.825,0.29-8.214,1.882c-1.271,0.828-2.083,2.171-2.72,3.513
	c-0.884,1.957-1.417,4.046-1.854,6.141c-0.426,2.121-0.733,4.263-1,6.407c-0.315,2.579-0.551,5.168-0.813,7.754
	c-0.213,2.313-0.449,4.627-0.716,6.937c-0.492,4.093-1.108,8.194-2.325,12.143c-0.696,2.178-1.57,4.324-2.873,6.213
	c-0.887,1.313-1.998,2.483-3.317,3.367C8.521,54.939,6.479,55.63,4.4,55.816c-1.949,0.148-3.91-0.053-5.806-0.526
	c0.494-2.111,1.071-4.205,1.579-6.313c0.211-0.788,0.369-1.593,0.619-2.369c1.328,0.292,2.794,0.555,4.072-0.059
	c1.095-0.551,1.747-1.664,2.258-2.73c0.873-1.966,1.368-4.074,1.778-6.177c0.444-2.294,0.738-4.613,1.016-6.929
	c0.51-4.59,0.882-9.189,1.404-13.776c0.052-0.338,0.073-0.679,0.13-1.016c0.532-4.274,1.233-8.564,2.677-12.637
	c0.803-2.221,1.849-4.379,3.315-6.242c0.945-1.225,2.086-2.299,3.375-3.156c2.95-2.006,6.439-3.189,9.993-3.485
	c0.814-0.015,1.627-0.148,2.438-0.038c0.312,0.012,0.625-0.003,0.935,0.034c4.16,0.337,8.233,1.911,11.435,4.603
	c2.894,2.402,5.001,5.736,5.886,9.393C52.107,6.781,52.221,9.288,51.882,11.725z"/>
</svg>
