<?xml version="1.0" encoding="utf-8"?>
<!-- Generator: Adobe Illustrator 16.0.0, SVG Export Plug-In . SVG Version: 6.00 Build 0)  -->
<!DOCTYPE svg PUBLIC "-//W3C//DTD SVG 1.1//EN" "http://www.w3.org/Graphics/SVG/1.1/DTD/svg11.dtd">
<svg version="1.1" id="Layer_1" xmlns="http://www.w3.org/2000/svg" xmlns:xlink="http://www.w3.org/1999/xlink" x="0px" y="0px"
	 width="96.486px" height="99.908px" viewBox="0 0 96.486 99.908" enable-background="new 0 0 96.486 99.908" xml:space="preserve">
<path fill="#FFFFFF" d="M40.802,17.012l21.678-0.034c1.807,0,3.61,0.406,5.116,1.154c1.505,0.748,2.784,1.771,3.838,3.065
	c1.054,1.298,1.83,2.819,2.333,4.562c0.501,1.746,0.651,3.566,0.451,5.46c-0.202,2.094-0.828,4.038-1.882,5.833
	s-2.311,3.343-3.764,4.637c-1.457,1.298-3.086,2.319-4.893,3.067c-1.807,0.749-3.583,1.108-5.289,1.108l-24.215,0.016L40.802,17.012
	z M65.997,0L11.194,0.021l6.934,15.735L0,99.908h22.156l8.406-37.573l23.82-0.056c0,0,3.336,8.089,5.372,17.788
	c1.917,9.131,2.686,19.841,2.686,19.841h21.484c0,0-0.303-9.77-2.792-20.375c-3.112-13.258-6.607-20.675-6.607-20.675
	s7.895-3.881,10.754-6.325c2.861-2.442,5.293-5.408,7.302-8.9c2.007-3.489,3.261-7.577,3.765-12.267
	c0.399-4.286-0.052-8.301-1.354-12.04c-1.305-3.739-3.312-7.029-6.02-9.872c-2.71-2.841-6.047-5.085-10.01-6.73
	C74.998,1.08,70.917,0,66.004,0C66.002,0,65.999,0,65.997,0"/>
</svg>
