<?xml version="1.0" encoding="utf-8"?>
<!-- Generator: Adobe Illustrator 16.0.0, SVG Export Plug-In . SVG Version: 6.00 Build 0)  -->
<!DOCTYPE svg PUBLIC "-//W3C//DTD SVG 1.1//EN" "http://www.w3.org/Graphics/SVG/1.1/DTD/svg11.dtd">
<svg version="1.1" id="Layer_1" xmlns="http://www.w3.org/2000/svg" xmlns:xlink="http://www.w3.org/1999/xlink" x="0px" y="0px"
	 width="36px" height="36px" viewBox="-79.792 2 36 36" enable-background="new -79.792 2 36 36" xml:space="preserve">
<path fill="#FFFFFF" d="M-61.792,2c-9.944,0-18,8.056-18,18s8.056,18,18,18s18-8.056,18-18S-51.847,2-61.792,2z M-53.966,16.385
	c0.006,0.165,0.011,0.333,0.011,0.5c0,5.133-3.907,11.047-11.047,11.047c-2.194,0-4.234-0.639-5.954-1.743
	c0.304,0.037,0.612,0.053,0.928,0.053c1.818,0,3.492-0.619,4.821-1.659c-1.699-0.031-3.133-1.155-3.626-2.698
	c0.237,0.046,0.479,0.07,0.729,0.07c0.354,0,0.698-0.047,1.024-0.137c-1.776-0.358-3.115-1.927-3.115-3.808c0-0.016,0-0.032,0-0.048
	c0.524,0.29,1.122,0.464,1.758,0.485c-1.042-0.696-1.727-1.884-1.727-3.232c0-0.71,0.191-1.377,0.525-1.952
	c1.915,2.351,4.777,3.896,8.004,4.057c-0.065-0.283-0.1-0.581-0.1-0.884c0-2.145,1.739-3.883,3.883-3.883
	c1.116,0,2.126,0.471,2.835,1.226c0.883-0.174,1.714-0.499,2.464-0.942c-0.289,0.907-0.905,1.669-1.707,2.147
	c0.786-0.092,1.534-0.302,2.231-0.611C-52.55,15.153-53.208,15.836-53.966,16.385z"/>
</svg>
