<?xml version="1.0" encoding="utf-8"?>
<!-- Generator: Adobe Illustrator 16.0.0, SVG Export Plug-In . SVG Version: 6.00 Build 0)  -->
<!DOCTYPE svg PUBLIC "-//W3C//DTD SVG 1.1//EN" "http://www.w3.org/Graphics/SVG/1.1/DTD/svg11.dtd">
<svg version="1.1" id="Layer_1" xmlns="http://www.w3.org/2000/svg" xmlns:xlink="http://www.w3.org/1999/xlink" x="0px" y="0px"
	 width="42px" height="42px" viewBox="0 0 42 42" enable-background="new 0 0 42 42" xml:space="preserve">
<path fill="#A29060" d="M21,2.5c10.201,0,18.5,8.299,18.5,18.5S31.201,39.5,21,39.5S2.5,31.201,2.5,21S10.799,2.5,21,2.5 M21,0
	C9.402,0,0,9.402,0,21s9.402,21,21,21c11.597,0,21-9.402,21-21S32.597,0,21,0L21,0z"/>
<g>
	<rect x="19.75" y="13.994" fill="#A29060" width="2.5" height="15.002"/>
	<polygon fill="#A29060" points="16.579,19.853 14.811,18.085 21,11.895 27.188,18.085 25.42,19.853 21,15.431 	"/>
</g>
</svg>
